<?xml version="1.0" encoding="UTF-8" standalone="no"?>
<!-- Created with Inkscape (http://www.inkscape.org/) -->

<svg
   xmlns:dc="http://purl.org/dc/elements/1.1/"
   xmlns:cc="http://creativecommons.org/ns#"
   xmlns:rdf="http://www.w3.org/1999/02/22-rdf-syntax-ns#"
   xmlns:svg="http://www.w3.org/2000/svg"
   xmlns="http://www.w3.org/2000/svg"
   xmlns:sodipodi="http://sodipodi.sourceforge.net/DTD/sodipodi-0.dtd"
   xmlns:inkscape="http://www.inkscape.org/namespaces/inkscape"
   width="22"
   height="22"
   viewBox="0 0 5.8208332 5.8208332"
   version="1.1"
   id="svg8"
   inkscape:version="0.92.4 (5da689c313, 2019-01-14)"
   sodipodi:docname="arrow-up.svg">
  <defs
     id="defs2" />
  <sodipodi:namedview
     id="base"
     pagecolor="#ffffff"
     bordercolor="#666666"
     borderopacity="1.0"
     inkscape:pageopacity="0.0"
     inkscape:pageshadow="2"
     inkscape:zoom="31.678384"
     inkscape:cx="4.1645013"
     inkscape:cy="10.597141"
     inkscape:document-units="mm"
     inkscape:current-layer="g3730"
     showgrid="false"
     fit-margin-top="0"
     fit-margin-left="0"
     fit-margin-right="0"
     fit-margin-bottom="0"
     units="px"
     inkscape:pagecheckerboard="true"
     inkscape:window-width="1920"
     inkscape:window-height="1001"
     inkscape:window-x="-9"
     inkscape:window-y="-9"
     inkscape:window-maximized="1" />
  <metadata
     id="metadata5">
    <rdf:RDF>
      <cc:Work
         rdf:about="">
        <dc:format>image/svg+xml</dc:format>
        <dc:type
           rdf:resource="http://purl.org/dc/dcmitype/StillImage" />
        <dc:title></dc:title>
      </cc:Work>
    </rdf:RDF>
  </metadata>
  <g
     inkscape:label="Layer 1"
     inkscape:groupmode="layer"
     id="layer1"
     transform="translate(-105.19077,-141.3872)">
    <g
       style="fill:none;stroke:currentColor;stroke-width:2;stroke-linecap:round;stroke-linejoin:round"
       id="g3730"
       transform="matrix(0.26458333,0,0,0.26458333,104.92619,141.12262)">
      <circle
         id="circle3713"
         r="10"
         cy="12"
         cx="12" />
      <polyline
         id="polyline3715"
         points="16 12 12 8 8 12" />
      <line
         id="line3717"
         y2="8"
         y1="16"
         x2="12"
         x1="12" />
      <path
         style="fill:#ffff00;fill-opacity:1;stroke-width:0.08928572"
         d="M 9.9339408,21.929028 C 7.3658756,21.644063 5.1819752,20.626669 3.3771506,18.874475 1.5582196,17.108587 0.49073448,14.995932 0.10610197,12.400756 0.01561185,11.790205 0.02784302,10.116902 0.127476,9.4766489 0.38626243,7.8136578 0.98248011,6.2416172 1.8400942,4.9610069 3.6684551,2.2308539 6.4240229,0.52679221 9.7107265,0.09375492 10.40256,0.00260294 11.897784,0.02683714 12.612512,0.1407863 c 4.849303,0.77312453 8.502769,4.4346282 9.248552,9.2688983 0.127403,0.8258464 0.136901,2.2896874 0.01984,3.0580354 -0.26875,1.76401 -0.798148,3.170607 -1.716468,4.560613 -1.718339,2.600948 -4.338077,4.290787 -7.465717,4.815699 -0.641335,0.107635 -2.144355,0.153841 -2.7647802,0.085 z m 2.0441702,-1.964292 c 3.511067,-0.385745 6.478661,-2.78847 7.577811,-6.135409 1.056301,-3.216462 0.260897,-6.680254 -2.094733,-9.1220478 -1.862651,-1.9307839 -4.636953,-2.9496709 -7.310465,-2.684833 -4.6444189,0.460076 -8.1597458,4.319842 -8.1628455,8.9626588 -0.00306,4.588612 3.4367413,8.453054 7.9907052,8.977142 0.4877553,0.05613 1.4997903,0.05739 1.9995273,0.0025 z"
         id="path4539"
         inkscape:connector-curvature="0"
         transform="translate(0.99998741,0.99998741)" />
      <path
         style="fill:#78cccc;fill-opacity:1;stroke-width:0.08928572"
         d="m 10.720058,15.940998 c -0.2369,-0.06495 -0.584302,-0.40751 -0.647482,-0.638456 -0.03301,-0.120665 -0.04893,-1.112226 -0.0491,-3.057731 L 10.023227,9.3656505 8.8067087,10.579994 C 7.9187482,11.466367 7.5359336,11.818691 7.3892979,11.884512 6.9037596,12.102458 6.385829,11.911388 6.126392,11.418613 6.0087325,11.195131 6.0031,10.814202 6.1141802,10.59272 6.2214876,10.378761 10.356065,6.2359745 10.577074,6.1209658 c 0.234438,-0.1219973 0.621879,-0.1220778 0.856591,-1.782e-4 0.254734,0.1322984 4.370071,4.2693004 4.45819,4.4816594 0.09275,0.223523 0.08564,0.596361 -0.01563,0.819324 -0.145466,0.320276 -0.515098,0.55438 -0.875321,0.55438 -0.381614,0 -0.43136,-0.0384 -1.750988,-1.351466 L 11.99,9.3710294 11.9776,12.314464 c -0.01229,2.916222 -0.01329,2.945086 -0.108507,3.122006 -0.226074,0.420078 -0.699249,0.627845 -1.149031,0.504528 z"
         id="path4541"
         inkscape:connector-curvature="0"
         transform="translate(0.99998741,0.99998741)" />
      <path
         style="fill:#78cccc;fill-opacity:1;stroke-width:0.08928572"
         d="M 9.4517979,21.797319 C 7.581614,21.510615 5.9464912,20.831594 4.4781269,19.731891 3.9452757,19.332823 2.919572,18.337377 2.4848857,17.797451 1.1649702,16.157976 0.31212513,14.050566 0.13830604,11.99897 0.07415618,11.241806 0.12060822,9.9340243 0.23563882,9.2587239 1.0130971,4.6945654 4.4293229,1.1807534 8.9607265,0.28439969 10.503255,-0.02072671 12.37974,0.05543182 13.884294,0.48422621 16.743062,1.298969 19.099235,3.1421275 20.511467,5.6684525 c 0.69811,1.248841 1.192109,2.8021549 1.334275,4.1954459 0.02951,0.2891996 0.03972,0.8956406 0.02542,1.5100716 -0.02132,0.915959 -0.03852,1.096655 -0.159396,1.674107 -0.465139,2.222083 -1.379443,3.975398 -2.883586,5.529709 -1.535583,1.5868 -3.456841,2.644585 -5.639068,3.104695 -1.038446,0.218951 -2.720944,0.270649 -3.7373111,0.114838 z m 3.3258931,-1.893744 c 1.77365,-0.377308 3.271678,-1.16789 4.524928,-2.388023 1.188681,-1.157269 1.964796,-2.446779 2.413336,-4.009739 C 21.068929,8.7913034 18.447636,3.8710805 13.780302,2.3644635 12.844635,2.0624299 11.996222,1.9318974 10.970826,1.9322116 6.3331886,1.9336331 2.4528123,5.4539208 1.9702016,10.097602 c -0.1056884,1.016935 0.011861,2.348048 0.2969575,3.362709 0.91797,3.26706 3.620379,5.771298 6.9463643,6.436977 0.7673795,0.153587 0.741712,0.151761 1.9347036,0.137661 0.961144,-0.01136 1.128868,-0.02488 1.629464,-0.131374 z"
         id="path4543"
         inkscape:connector-curvature="0"
         transform="translate(0.99998741,0.99998741)" />
    </g>
  </g>
</svg>
